<?xml version="1.0" standalone="no"?>
<!DOCTYPE svg PUBLIC "-//W3C//DTD SVG 20010904//EN"
 "http://www.w3.org/TR/2001/REC-SVG-20010904/DTD/svg10.dtd">
<svg version="1.0" xmlns="http://www.w3.org/2000/svg"
 width="256.000000pt" height="156.000000pt" viewBox="0 0 256.000000 156.000000"
 preserveAspectRatio="xMidYMid meet">

<g transform="translate(0.000000,156.000000) scale(0.100000,-0.100000)"
fill="#000000" stroke="none">
<path d="M2002 1261 c-77 -20 -107 -75 -104 -196 2 -111 -6 -136 -73 -233 -56
-82 -80 -132 -95 -196 -10 -48 -4 -65 20 -59 42 11 67 -6 98 -65 39 -74 56
-89 77 -72 8 7 15 17 15 23 0 6 -34 43 -75 82 -60 58 -75 78 -75 102 0 33 27
120 41 128 4 3 2 -10 -6 -29 -15 -36 -20 -117 -8 -130 4 -3 13 17 20 45 7 28
28 85 47 128 41 93 52 151 35 179 -10 16 -10 23 0 35 7 10 10 28 6 49 -5 25
-2 40 12 57 18 22 20 22 36 6 9 -9 17 -25 17 -36 0 -31 33 -22 50 14 17 37 44
46 70 22 14 -13 18 -31 18 -84 -1 -77 8 -108 68 -244 24 -53 44 -103 44 -111
0 -7 6 -19 14 -25 12 -10 15 -7 20 16 8 35 -6 83 -34 123 -12 16 -19 30 -15
30 3 0 19 -21 35 -47 21 -32 30 -60 30 -88 0 -34 5 -45 30 -63 17 -13 30 -31
30 -42 0 -27 16 -25 24 3 19 72 -10 161 -87 262 -76 99 -78 105 -86 225 -8
114 -19 145 -66 176 -30 19 -88 26 -133 15z m41 -18 c-7 -2 -21 -2 -30 0 -10
3 -4 5 12 5 17 0 24 -2 18 -5z m44 1 c-3 -3 -12 -4 -19 -1 -8 3 -5 6 6 6 11 1
17 -2 13 -5z"/>
<path d="M517 1192 c-30 -33 -15 -72 28 -72 42 0 59 44 29 74 -20 21 -37 20
-57 -2z"/>
<path d="M130 1166 c0 -8 11 -17 25 -20 l25 -6 0 -170 0 -170 -25 0 c-16 0
-25 -6 -25 -15 0 -13 24 -15 155 -15 l155 0 0 61 c0 57 -1 60 -22 57 -14 -2
-24 -11 -26 -23 -10 -66 -8 -65 -72 -65 l-60 0 2 173 c3 170 3 172 26 175 12
2 22 10 22 18 0 11 -19 14 -90 14 -70 0 -90 -3 -90 -14z"/>
<path d="M1678 1078 c5 -19 7 -20 10 -5 4 20 22 23 22 4 0 -8 7 -14 15 -14 8
0 15 8 15 17 0 11 -10 17 -34 18 -31 2 -34 0 -28 -20z"/>
<path d="M2062 1088 c-18 -18 -15 -36 7 -48 11 -5 22 -10 25 -10 8 0 8 34 0
54 -7 19 -16 20 -32 4z"/>
<path d="M1947 1084 c-4 -4 -7 -18 -7 -31 0 -28 23 -27 28 1 4 20 -11 40 -21
30z"/>
<path d="M501 1052 c-33 -17 -44 -40 -15 -34 11 2 14 -17 14 -106 0 -101 -2
-110 -20 -115 -11 -3 -20 -10 -20 -16 0 -7 29 -11 80 -11 75 0 105 11 60 23
-19 5 -20 14 -20 141 0 135 0 136 -22 136 -13 -1 -38 -9 -57 -18z"/>
<path d="M683 1055 c-37 -16 -44 -35 -13 -35 19 0 20 -7 20 -110 0 -103 -1
-110 -20 -110 -11 0 -20 -7 -20 -15 0 -12 15 -15 75 -15 57 0 75 3 75 14 0 7
-9 16 -20 19 -18 5 -20 14 -20 101 0 94 1 97 26 106 37 14 52 12 74 -10 17
-17 20 -33 20 -105 0 -74 -2 -86 -20 -95 -38 -20 -20 -30 55 -30 60 0 75 3 75
15 0 8 -9 15 -20 15 -19 0 -20 7 -20 110 0 104 -1 112 -25 135 -28 29 -55 31
-115 10 -23 -8 -44 -15 -46 -15 -2 0 -4 7 -4 15 0 19 -34 19 -77 0z"/>
<path d="M1051 1056 c-40 -14 -53 -36 -22 -36 20 0 21 -5 21 -95 0 -52 5 -105
11 -119 22 -47 81 -55 152 -19 24 12 27 12 27 -2 0 -12 12 -15 55 -15 42 0 55
3 55 15 0 8 -9 15 -20 15 -19 0 -20 7 -20 135 0 152 0 152 -75 121 -39 -17
-45 -31 -15 -39 18 -5 20 -14 20 -95 0 -54 -4 -94 -11 -97 -20 -13 -80 -9 -90
5 -5 8 -9 66 -9 128 0 110 0 112 -22 111 -13 0 -38 -6 -57 -13z"/>
<path d="M1370 1055 c0 -8 7 -15 15 -15 14 0 95 -109 95 -129 0 -17 -80 -111
-95 -111 -8 0 -15 -7 -15 -15 0 -11 13 -15 54 -15 57 0 78 12 50 28 -14 8 -14
13 7 45 13 20 26 37 29 37 7 0 50 -68 50 -80 0 -5 -4 -10 -10 -10 -5 0 -10 -4
-10 -10 0 -6 30 -10 70 -10 66 0 92 12 55 26 -8 4 -35 35 -59 69 l-44 63 36
51 c21 28 45 53 55 56 9 4 17 13 17 21 0 10 -13 14 -49 14 -52 0 -76 -16 -48
-32 15 -8 14 -12 -6 -43 -12 -19 -24 -35 -27 -35 -3 0 -16 17 -29 37 -21 32
-21 37 -7 45 30 17 5 28 -65 28 -55 0 -69 -3 -69 -15z"/>
<path d="M1272 700 c-263 -13 -306 -18 -321 -42 -7 -11 -8 -17 -2 -13 14 8 14
-11 0 -37 -10 -19 -9 -20 15 -16 15 3 29 1 32 -3 3 -5 -6 -9 -20 -9 -14 0 -26
-4 -26 -8 0 -17 659 76 701 98 63 34 -71 45 -379 30z"/>
<path d="M2226 604 c-18 -47 17 -101 57 -88 31 9 57 34 57 55 0 37 -101 66
-114 33z m47 -1 c8 -7 -25 -33 -35 -27 -4 3 -5 11 -1 19 5 16 25 20 36 8z"/>
<path d="M2116 383 c-43 -23 -106 -27 -146 -11 l-35 15 0 -38 -1 -38 106 6
c58 3 105 6 106 7 6 6 11 76 6 75 -4 -1 -20 -8 -36 -16z"/>
</g>
</svg>
